<?xml version="1.0" encoding="UTF-8" standalone="no"?>
<!DOCTYPE svg PUBLIC "-//W3C//DTD SVG 1.0//EN"
 "http://www.w3.org/TR/2001/REC-SVG-20010904/DTD/svg10.dtd" [
 <!ATTLIST svg xmlns:xlink CDATA #FIXED "http://www.w3.org/1999/xlink">
]>
<!-- Generated by Graphviz version 2.20.2 (Tue Mar &#160;2 19:03:41 UTC 2010)
     For user: (mattm) Matt Mueller -->
<!-- Title: csd Pages: 1 -->
<svg width="638pt" height="503pt"
 viewBox="0.00 0.00 638.00 503.00" xmlns="http://www.w3.org/2000/svg" xmlns:xlink="http://www.w3.org/1999/xlink">
<g id="graph0" class="graph" transform="scale(1 1) rotate(0) translate(4 499)">
<title>csd</title>
<polygon style="fill:white;stroke:white;" points="-4,4 -4,-499 634,-499 634,4 -4,4"/>
<g id="cluster2" class="cluster"><title>cluster1</title>
<polygon style="fill:#cfcfff;stroke:#cfcfff;" points="8,-16 8,-186 479,-186 479,-16 8,-16"/>
<text text-anchor="middle" x="243" y="-169.9" style="font-family:Times New Roman;font-size:14.00;">Renderer Process</text>
</g>
<g id="cluster3" class="cluster"><title>cluster11</title>
<polygon style="fill:#afafff;stroke:#afafff;" points="16,-24 16,-101 364,-101 364,-24 16,-24"/>
<text text-anchor="middle" x="190" y="-84.9" style="font-family:Times New Roman;font-size:14.00;">RenderView</text>
</g>
<g id="cluster4" class="cluster"><title>cluster12</title>
<polygon style="fill:#afafff;stroke:#afafff;" points="372,-24 372,-101 471,-101 471,-24 372,-24"/>
<text text-anchor="middle" x="421" y="-84.9" style="font-family:Times New Roman;font-size:14.00;">RenderView</text>
</g>
<g id="cluster5" class="cluster"><title>cluster2</title>
<polygon style="fill:#cfcfff;stroke:#cfcfff;" points="487,-109 487,-186 622,-186 622,-109 487,-109"/>
<text text-anchor="middle" x="554" y="-169.9" style="font-family:Times New Roman;font-size:14.00;">Renderer Process</text>
</g>
<g id="cluster6" class="cluster"><title>cluster0</title>
<polygon style="fill:#ffcfcf;stroke:#ffcfcf;" points="175,-194 175,-487 563,-487 563,-194 175,-194"/>
<text text-anchor="middle" x="369" y="-470.9" style="font-family:Times New Roman;font-size:14.00;">Browser Process</text>
</g>
<!-- PhishingClassifierDelegate::SetPhishingScorer -->
<g id="node3" class="node"><title>PhishingClassifierDelegate::SetPhishingScorer</title>
<polygon style="fill:none;stroke:black;" points="356,-68 24,-68 24,-32 356,-32 356,-68"/>
<text text-anchor="middle" x="190" y="-45.9" style="font-family:Times New Roman;font-size:14.00;">PhishingClassifierDelegate::SetPhishingScorer</text>
</g>
<!-- cluster12node -->
<g id="node5" class="node"><title>cluster12node</title>
<polygon style="fill:none;stroke:black;" points="434,-68 380,-68 380,-32 434,-32 434,-68"/>
<text text-anchor="middle" x="407" y="-45.9" style="font-family:Times New Roman;font-size:14.00;">...</text>
</g>
<!-- PhishingClassifierFilter::OnSetPhishingModel -->
<g id="node6" class="node"><title>PhishingClassifierFilter::OnSetPhishingModel</title>
<polygon style="fill:none;stroke:black;" points="471,-153 149,-153 149,-117 471,-117 471,-153"/>
<text text-anchor="middle" x="310" y="-130.9" style="font-family:Times New Roman;font-size:14.00;">PhishingClassifierFilter::OnSetPhishingModel</text>
</g>
<!-- PhishingClassifierFilter::OnSetPhishingModel&#45;&gt;PhishingClassifierDelegate::SetPhishingScorer -->
<g id="edge5" class="edge"><title>PhishingClassifierFilter::OnSetPhishingModel&#45;&gt;PhishingClassifierDelegate::SetPhishingScorer</title>
<path style="fill:none;stroke:black;" d="M285,-117C267,-105 243,-88 224,-74"/>
<polygon style="fill:black;stroke:black;" points="226.1,-71.2 216,-68 221.9,-76.8 226.1,-71.2"/>
</g>
<!-- PhishingClassifierFilter::OnSetPhishingModel&#45;&gt;cluster12node -->
<g id="edge7" class="edge"><title>PhishingClassifierFilter::OnSetPhishingModel&#45;&gt;cluster12node</title>
<path style="fill:none;stroke:black;" d="M345,-117C353,-112 361,-107 368,-101 376,-94 383,-85 389,-77"/>
<polygon style="fill:black;stroke:black;" points="392.365,-78.262 395,-68 386.541,-74.3791 392.365,-78.262"/>
</g>
<!-- cluster2node -->
<g id="node10" class="node"><title>cluster2node</title>
<polygon style="fill:none;stroke:black;" points="549,-153 495,-153 495,-117 549,-117 549,-153"/>
<text text-anchor="middle" x="522" y="-130.9" style="font-family:Times New Roman;font-size:14.00;">...</text>
</g>
<!-- ClientSideDetectionService::Create -->
<g id="node12" class="node"><title>ClientSideDetectionService::Create</title>
<polygon style="fill:none;stroke:black;" points="498,-454 240,-454 240,-418 498,-418 498,-454"/>
<text text-anchor="middle" x="369" y="-431.9" style="font-family:Times New Roman;font-size:14.00;">ClientSideDetectionService::Create</text>
</g>
<!-- ClientSideDetectionService::StartFetchModel -->
<g id="node14" class="node"><title>ClientSideDetectionService::StartFetchModel</title>
<polygon style="fill:none;stroke:black;" points="532,-382 206,-382 206,-346 532,-346 532,-382"/>
<text text-anchor="middle" x="369" y="-359.9" style="font-family:Times New Roman;font-size:14.00;">ClientSideDetectionService::StartFetchModel</text>
</g>
<!-- ClientSideDetectionService::Create&#45;&gt;ClientSideDetectionService::StartFetchModel -->
<g id="edge11" class="edge"><title>ClientSideDetectionService::Create&#45;&gt;ClientSideDetectionService::StartFetchModel</title>
<path style="fill:none;stroke:black;stroke-dasharray:5,2;" d="M369,-418C369,-410 369,-401 369,-392"/>
<polygon style="fill:black;stroke:black;" points="372.5,-392 369,-382 365.5,-392 372.5,-392"/>
</g>
<!-- ClientSideDetectionService::EndFetchModel -->
<g id="node16" class="node"><title>ClientSideDetectionService::EndFetchModel</title>
<polygon style="fill:none;stroke:black;" points="527,-310 211,-310 211,-274 527,-274 527,-310"/>
<text text-anchor="middle" x="369" y="-287.9" style="font-family:Times New Roman;font-size:14.00;">ClientSideDetectionService::EndFetchModel</text>
</g>
<!-- ClientSideDetectionService::StartFetchModel&#45;&gt;ClientSideDetectionService::EndFetchModel -->
<g id="edge13" class="edge"><title>ClientSideDetectionService::StartFetchModel&#45;&gt;ClientSideDetectionService::EndFetchModel</title>
<path style="fill:none;stroke:#c900c9;stroke-width:2;stroke-dasharray:1,5;" d="M363,-346C362,-338 362,-329 362,-320"/>
<polygon style="fill:#c900c9;stroke:#c900c9;" points="365.488,-320.299 363,-310 358.522,-319.602 365.488,-320.299"/>
</g>
<!-- ClientSideDetectionService::EndFetchModel&#45;&gt;ClientSideDetectionService::StartFetchModel -->
<g id="edge15" class="edge"><title>ClientSideDetectionService::EndFetchModel&#45;&gt;ClientSideDetectionService::StartFetchModel</title>
<path style="fill:none;stroke:black;stroke-dasharray:5,2;" d="M375,-310C376,-318 376,-327 376,-336"/>
<polygon style="fill:black;stroke:black;" points="372.512,-335.701 375,-346 379.478,-336.398 372.512,-335.701"/>
</g>
<!-- ClientSideDetectionService::SendModelToRenderers -->
<g id="node19" class="node"><title>ClientSideDetectionService::SendModelToRenderers</title>
<polygon style="fill:none;stroke:black;" points="555,-238 183,-238 183,-202 555,-202 555,-238"/>
<text text-anchor="middle" x="369" y="-215.9" style="font-family:Times New Roman;font-size:14.00;">ClientSideDetectionService::SendModelToRenderers</text>
</g>
<!-- ClientSideDetectionService::EndFetchModel&#45;&gt;ClientSideDetectionService::SendModelToRenderers -->
<g id="edge17" class="edge"><title>ClientSideDetectionService::EndFetchModel&#45;&gt;ClientSideDetectionService::SendModelToRenderers</title>
<path style="fill:none;stroke:black;" d="M369,-274C369,-266 369,-257 369,-248"/>
<polygon style="fill:black;stroke:black;" points="372.5,-248 369,-238 365.5,-248 372.5,-248"/>
</g>
<!-- ClientSideDetectionService::SendModelToRenderers&#45;&gt;PhishingClassifierFilter::OnSetPhishingModel -->
<g id="edge19" class="edge"><title>ClientSideDetectionService::SendModelToRenderers&#45;&gt;PhishingClassifierFilter::OnSetPhishingModel</title>
<path style="fill:none;stroke:black;stroke-dasharray:5,2;" d="M356,-202C348,-191 338,-175 329,-162"/>
<polygon style="fill:black;stroke:black;" points="331.459,-159.379 323,-153 325.635,-163.262 331.459,-159.379"/>
</g>
<!-- ClientSideDetectionService::SendModelToRenderers&#45;&gt;cluster2node -->
<g id="edge21" class="edge"><title>ClientSideDetectionService::SendModelToRenderers&#45;&gt;cluster2node</title>
<path style="fill:none;stroke:black;stroke-dasharray:5,2;" d="M452,-202C463,-198 474,-192 483,-186 492,-179 500,-170 506,-162"/>
<polygon style="fill:black;stroke:black;" points="509.365,-163.262 512,-153 503.541,-159.379 509.365,-163.262"/>
</g>
</g>
</svg>
